# xmcd CD database file
#
# Track frame offsets:
#	150
#	35835
#	52222
#	79267
#	100715
#	114065
#	153705
#	171667
#	206805
#	228742
#	252420
#	263692
#	289625
#	313402
#
# Disc length: 4551 seconds
#
# Revision: 2
# Processed by: cddbd v1.5.2PL0 Copyright (c) Steve Scherf et al.
# Submitted via: CDex 1.51
#
DISCID=d411c50e
DTITLE=Various Artist - Classic Jazz - The Sixties - Disc 1 of 2
DYEAR=2001
DGENRE=Jazz
TTITLE0=Herbie Hancock - Maiden Voyage
TTITLE1=Ella Fitzgerald - It's Only a Paper Moon
TTITLE2=Sonny Rollins - The Bridge
TTITLE3=Charles Mingus - Wham Bam Thank You Ma'am
TTITLE4=Eric Dolphy - The Baron
TTITLE5=Oliver Nelson - Stolen Moments
TTITLE6=Stan Getz - Night Rider
TTITLE7=John Coltrane - A Love Supreme: Part 1 - Acknowledgement
TTITLE8=Archie Shepp - Prelude to a Kiss
TTITLE9=Dave Brubeck Quartet - It's a Raggy Waltz
TTITLE10=Sarah Vaughan - Mr. Lucky
TTITLE11=Donald Byrd - Cristo Redentor
TTITLE12=Ornette Coleman Quartet - Blues Connotation
TTITLE13=Wes Montgomery - Four on Six
EXTD=YEAR: 2001
EXTT0=
EXTT1=
EXTT2=
EXTT3=
EXTT4=
EXTT5=
EXTT6=
EXTT7=
EXTT8=
EXTT9=
EXTT10=
EXTT11=
EXTT12=
EXTT13=
PLAYORDER=
